<?xml version="1.0" encoding="UTF-8" standalone="no"?>
<!-- Generator: Adobe Illustrator 16.0.0, SVG Export Plug-In . SVG Version: 6.00 Build 0)  -->

<svg
   xmlns:dc="http://purl.org/dc/elements/1.1/"
   xmlns:cc="http://creativecommons.org/ns#"
   xmlns:rdf="http://www.w3.org/1999/02/22-rdf-syntax-ns#"
   xmlns:svg="http://www.w3.org/2000/svg"
   xmlns="http://www.w3.org/2000/svg"
   xmlns:sodipodi="http://sodipodi.sourceforge.net/DTD/sodipodi-0.dtd"
   xmlns:inkscape="http://www.inkscape.org/namespaces/inkscape"
   version="1.1"
   id="Layer_1"
   x="0px"
   y="0px"
   width="80"
   height="80"
   viewBox="0 0 85.789 91.76"
   enable-background="new 0 0 85.789 91.76"
   xml:space="preserve"
   inkscape:version="0.48.4 r9939"
   sodipodi:docname="openstack-black.svg"><metadata
     id="metadata3068"><rdf:RDF><cc:Work
         rdf:about=""><dc:format>image/svg+xml</dc:format><dc:type
           rdf:resource="http://purl.org/dc/dcmitype/StillImage" /></cc:Work></rdf:RDF></metadata><defs
     id="defs3066" /><sodipodi:namedview
     pagecolor="#ffffff"
     bordercolor="#666666"
     borderopacity="1"
     objecttolerance="10"
     gridtolerance="10"
     guidetolerance="10"
     inkscape:pageopacity="0"
     inkscape:pageshadow="2"
     inkscape:window-width="1668"
     inkscape:window-height="1233"
     id="namedview3064"
     showgrid="false"
     inkscape:zoom="2.5719267"
     inkscape:cx="42.894501"
     inkscape:cy="61.432544"
     inkscape:window-x="628"
     inkscape:window-y="145"
     inkscape:window-maximized="0"
     inkscape:current-layer="Layer_1"
     inkscape:snap-bbox="false" /><g
     id="g3070"
     transform="matrix(0.9593226,0,0,0.9593226,43.686417,46.854341)"><path
       inkscape:connector-curvature="0"
       id="path3038"
       d="m -41.837,34.322998 c -0.688,-0.673 -1.064,-1.604 -1.063,-2.626 l 0.032,-14.932 8.635,8.541 -0.027,16.514 -7.577,-7.497 z" /><polygon
       transform="matrix(1,0,0,-1,0,-1.7833992e-6)"
       id="polygon3040"
       points="28.735,8.765 42.818,10.001 42.912,-13.484 28.83,-14.717 " /><polygon
       transform="matrix(1,0,0,-1,0,-1.7833992e-6)"
       id="polygon3042"
       points="-32.318,3.421 -18.226,4.654 -18.136,-18.833 -32.224,-20.066 " /><polygon
       transform="matrix(1,0,0,-1,0,-1.7833992e-6)"
       id="polygon3044"
       points="-42.86,-10.216 -42.947,12.445 -34.32,3.917 -34.229,-18.752 " /><path
       inkscape:connector-curvature="0"
       id="path3046"
       d="m -28.615,45.879998 c -1.003,10e-4 -1.928,-0.374 -2.604,-1.052 -0.675,-0.678 -1.045,-1.607 -1.041,-2.616 l 0.027,-16.405 14.094,-1.237 -0.006,2.616 c 0,1.932 1.505,3.443 3.427,3.443 0,0 0,0 0,0 0.105,0 0.212,-0.004 0.32,-0.014 l 39.623,-3.472 c 2.006,-0.181 3.584,-1.89 3.596,-3.892 l 0.004,-2.793 14.08,-1.232 -0.027,16.227 c -0.005,2.301 -1.895,4.342 -4.211,4.546 l -66.919,5.865 c -0.123,0.011 -0.244,0.016 -0.363,0.016 z" /><path
       inkscape:connector-curvature="0"
       id="path3048"
       d="m -32.192,-24.984002 c 0.005,-2.3 1.892,-4.336 4.207,-4.541 l 66.923,-5.831 c 0.108,-0.009 0.223,-0.013 0.334,-0.013 1.016,0 1.948,0.375 2.629,1.056 0.676,0.678 1.049,1.61 1.047,2.625 l -0.055,15.89 -14.076,1.221 0.004,-2.1 c 0,-1.931 -1.504,-3.443 -3.425,-3.443 -0.104,0 -0.211,0.005 -0.318,0.014 l -39.63,3.443 c -1.98,0.176 -3.589,1.921 -3.589,3.891 l -0.002,2.277 -14.092,1.2280002 0.043,-15.7170002 z" /><path
       inkscape:connector-curvature="0"
       id="path3050"
       d="m -42.876,-19.109002 0.05,-16.389 c 0.004,-2.31 1.89,-4.349 4.204,-4.548 l 66.923,-5.818 c 0.123,-0.011 0.244,-0.016 0.365,-0.016 0.997,0 1.914,0.367 2.58,1.034 0,0 6.137,6.062 7.584,7.493 -0.019,10e-4 -66.99,5.836 -66.99,5.836 -3.32,0.293 -6.025,3.222 -6.032,6.528 l -0.04,14.425 -8.644,-8.545 z" /><polygon
       transform="matrix(1,0,0,-1,0,-1.7833992e-6)"
       id="polygon3052"
       points="27.46,-16.844 40.064,-15.74 41.668,-17.328 28.2,-18.506 19.426,-9.833 20.295,-9.756 " /><path
       inkscape:connector-curvature="0"
       id="path3054"
       d="m 21.005,-17.745002 4.245,-0.37 c 0.049,-0.004 0.098,-0.006 0.146,-0.006 0.825,0 1.425,0.606 1.425,1.441 l -0.008,4.283 13.111,-1.137 1.65,1.633 -13.469,1.183 -7.1,-7.027 z" /><polygon
       transform="matrix(1,0,0,-1,0,-1.7833992e-6)"
       id="polygon3056"
       points="18.201,-4.871 18.11,17.493 18.391,17.517 26.732,9.262 26.824,-13.402 " /><polygon
       transform="matrix(1,0,0,-1,0,-1.7833992e-6)"
       id="polygon3058"
       points="-33.613,7.141 -21.161,8.225 -19.47,6.553 -32.947,5.374 -41.717,14.042 -40.687,14.132 " /><polygon
       transform="matrix(1,0,0,-1,0,-1.7833992e-6)"
       id="polygon3060"
       points="-33.594,-22.193 -20.974,-21.09 -19.375,-22.67 -32.857,-23.854 -41.625,-15.182 -40.761,-15.105 " /><path
       inkscape:connector-curvature="0"
       id="path3062"
       d="m -14.71,28.628998 c -0.068,0 -0.135,-0.004 -0.201,-0.012 l -0.122,-0.033 c -0.105,-0.021 -0.145,-0.027 -0.182,-0.039 l -0.098,-0.049 c -0.093,-0.041 -0.138,-0.059 -0.178,-0.083 l -0.081,-0.065 c -0.063,-0.046 -0.103,-0.07 -0.136,-0.104 -0.283,-0.27 -0.438,-0.645 -0.438,-1.057 l 0.01,-4.127 -2.225,-2.2 2.231,-0.195 -0.005,-1.353 30.726,-2.69 c 1.975,-0.17 3.586,-1.917 3.592,-3.894 l 0.001,-1.31 8.642,8.54 -0.006,3.285 c -0.006,0.945 -0.818,1.821 -1.773,1.907 l -39.619,3.472 c -0.047,0.005 -0.093,0.007 -0.138,0.007 z" /></g></svg>