<?xml version="1.0" encoding="utf-8"?>
<!DOCTYPE svg PUBLIC "-//W3C//DTD SVG 1.1//EN" "http://www.w3.org/Graphics/SVG/1.1/DTD/svg11.dtd">
<svg version="1.1" id="Layer_1" xmlns="http://www.w3.org/2000/svg" xmlns:xlink="http://www.w3.org/1999/xlink" x="0px" y="0px"
	 width="213.581px" height="200px" viewBox="0 0 213.581 200"
	 enable-background="new 0 0 213.581 200"
	 xml:space="preserve">
<symbol  id="Note" viewBox="-44.835 -41.53 89.67 83.059">
	<polygon points="7.675,17.906 7.675,-0.389 -7.675,-0.389 -7.675,17.906 -44.835,17.906 -44.835,-41.529 44.835,-41.529 
		44.835,17.906 	"/>
	<path d="M-3.675,19.776V3.611h7.35v16.165c4.373,1.522,7.517,5.67,7.517,10.562c0,6.181-5.011,11.191-11.191,11.191
		c-6.181,0-11.192-5.011-11.192-11.191C-11.191,25.446-8.048,21.298-3.675,19.776z"/>
</symbol>
<g>
	
		<use xlink:href="#Note"  width="89.67" height="83.059" x="-44.835" y="-41.53" transform="matrix(0.9998 0.0217 0.0217 -0.9998 89.6963 131.167)" overflow="visible"/>
	
		<use xlink:href="#Note"  width="89.67" height="83.059" x="-44.835" y="-41.53" transform="matrix(0.9891 -0.1471 -0.1471 -0.9891 161.4497 48.0005)" overflow="visible"/>
	
		<use xlink:href="#Note"  width="89.67" height="83.059" x="-44.835" y="-41.53" transform="matrix(0.9983 -0.0586 -0.0586 -0.9983 50.6831 42.1128)" overflow="visible"/>
</g>
</svg>
